<svg id="ab47acfe-844d-4101-aa7b-df38aa50dbe4" data-name="Layer 1" xmlns="http://www.w3.org/2000/svg" width="971.052" height="628.381"><path d="M847.931 636.215a249.626 249.626 0 0 1-2.094-54.111l2.094-29.889c-11.541 22.966-8.933 53.192 0 84ZM856.931 641.215a183.497 183.497 0 0 1-1.007-32.209l1.007-17.791c-5.553 13.67-4.298 31.662 0 50Z" transform="translate(-114.474 -135.81)" fill="#cacaca"/><path d="M896.936 663.217v10a3.016 3.016 0 0 1-3 3h-5a.996.996 0 0 0-1 1v82a3.016 3.016 0 0 1-3 3h-61a3.002 3.002 0 0 1-3-3v-82a1.003 1.003 0 0 0-1-1h-6a3.002 3.002 0 0 1-3-3v-10a2.996 2.996 0 0 1 3-3h80a3.009 3.009 0 0 1 3 3Z" transform="translate(-114.474 -135.81)" fill="#f2f2f2"/><path fill="#e6e6e6" d="M706.552 542.508h67v3h-67z"/><path d="M887.936 722.462c-22.42 9.278-45.084 9.38-68 0v-21.135a106.79 106.79 0 0 1 68 0Z" transform="translate(-114.474 -135.81)" fill="#e6e6e6"/><circle cx="451.481" cy="213.985" r="36.396" fill="#2f2e41"/><path d="M576.095 314.4a36.4 36.4 0 0 1 32.04 53.67 36.387 36.387 0 1 0-60.455-39.983 36.306 36.306 0 0 1 28.415-13.686Z" transform="translate(-114.474 -135.81)" fill="#2f2e41"/><circle cx="383.471" cy="106.996" r="106.912" fill="#2f2e41"/><path d="M414.036 176.47a106.893 106.893 0 0 1 148.167-11.209c-.874-.831-1.74-1.669-2.648-2.476A106.913 106.913 0 0 0 417.49 322.592c.909.807 1.842 1.568 2.77 2.34a106.893 106.893 0 0 1-6.223-148.461Z" transform="translate(-114.474 -135.81)" fill="#2f2e41"/><circle cx="382.565" cy="144.143" r="68.859" fill="#ffb8b8"/><path d="m532.214 367.505-73.688 3.312s6.15 38.108-33.715 41.733-76.108-7.249-90.604 19.932-8.248 123.967-8.248 123.967 27.18 97.852 48.926 112.348 212.012-5.436 212.012-5.436l79.629-100.544-2.697-77.54c-1.408-40.49-38.377-70.89-78.194-63.397q-1.172.22-2.362.475s-8.747-6.538-32.747-18.538c-14.677-7.338-18.312-36.312-18.312-36.312Z" transform="translate(-114.474 -135.81)" fill="#cacaca"/><path d="M372.26 410.738s17.514 31.777 10.266 77.08 23.164 141.114 23.164 141.114l21.745-5.437s-14.497-94.228-10.873-115.972 4.625-85.913-13.496-96.785-30.806 0-30.806 0ZM581.999 427.4l7.617 200.626 14.496 9.06s20.839-220.167 9.967-220.167h-22.123a9.97 9.97 0 0 0-9.97 9.97q0 .256.013.51Z" transform="translate(-114.474 -135.81)" fill="#2f2e41"/><circle cx="301.182" cy="479.532" r="9.06" fill="#0d6efd"/><circle cx="482.39" cy="488.592" r="9.06" fill="#0d6efd"/><path fill="#2f2e41" d="M323.672 58.069v68.859h15.947l20.295-21.745-2.718 21.745h70.489l-4.349-21.745 8.698 21.745h11.235V58.069H323.672z"/><ellipse cx="312.8" cy="129.647" rx="5.436" ry="9.966" fill="#ffb8b8"/><ellipse cx="452.329" cy="129.647" rx="5.436" ry="9.966" fill="#ffb8b8"/><path d="M717.626 744.255v6.07a13.34 13.34 0 0 1-.91 4.87 13.683 13.683 0 0 1-.97 2 13.437 13.437 0 0 1-11.55 6.56h-446.55a13.437 13.437 0 0 1-11.55-6.56 13.69 13.69 0 0 1-.97-2 13.341 13.341 0 0 1-.91-4.87v-6.07a13.426 13.426 0 0 1 13.423-13.43h25.747v-2.83a.56.56 0 0 1 .558-.56h13.432a.56.56 0 0 1 .56.559v2.831h8.39v-2.83a.56.56 0 0 1 .558-.56h13.432a.56.56 0 0 1 .56.559v2.831h8.4v-2.83a.56.56 0 0 1 .558-.56h13.432a.56.56 0 0 1 .56.559v2.831h8.39v-2.83a.56.56 0 0 1 .558-.56h13.432a.56.56 0 0 1 .56.559v2.832h8.39v-2.83a.56.56 0 0 1 .558-.56h13.432a.56.56 0 0 1 .56.558v2.832h8.4v-2.83a.56.56 0 0 1 .558-.56h13.432a.56.56 0 0 1 .56.558v2.832h8.39v-2.83a.56.56 0 0 1 .558-.56h105.202a.56.56 0 0 1 .56.558v2.832h8.4v-2.83a.56.56 0 0 1 .558-.56h13.432a.566.566 0 0 1 .56.56v2.83h8.39v-2.83a.56.56 0 0 1 .558-.56h13.432a.56.56 0 0 1 .56.558v2.832h8.39v-2.83a.56.56 0 0 1 .558-.56h13.432a.56.56 0 0 1 .56.558v2.832h8.4v-2.83a.56.56 0 0 1 .558-.56h13.432a.557.557 0 0 1 .55.56v2.83h8.4v-2.83a.56.56 0 0 1 .558-.56h13.432a.56.56 0 0 1 .56.558v2.832h8.39v-2.83a.56.56 0 0 1 .558-.56h13.432a.56.56 0 0 1 .56.558v2.832h39.17a13.426 13.426 0 0 1 13.43 13.422Z" transform="translate(-114.474 -135.81)" fill="#3f3d56"/><path fill="#3f3d56" d="M0 626.381h971.052v2H0z"/><path d="M681.668 488.621H272.625a11.259 11.259 0 0 0-11.259 11.259V727.79a11.259 11.259 0 0 0 11.259 11.259h409.043a11.259 11.259 0 0 0 11.259-11.259V499.88a11.259 11.259 0 0 0-11.259-11.259Z" transform="translate(-114.474 -135.81)" fill="#3f3d56"/><circle cx="363" cy="432.381" r="25" fill="#0d6efd"/><path fill="#3f3d56" d="m517.763 267.219 126.206-127.203h59.583v-2h-60.418l-.293.297-126.5 127.5 1.422 1.406z"/><path fill="#0d6efd" d="M776.328 87.792h146.224v13.03H776.328z"/><path d="M872.981 244.87h-30.955v-30.955h30.955Zm-28.955-2h26.955v-26.955h-26.955Z" transform="translate(-114.474 -135.81)" fill="#3f3d56"/><path fill="#0d6efd" d="M776.328 131.225h146.224v13.03H776.328z"/><path d="M872.981 288.303h-30.955v-30.955h30.955Zm-28.955-2h26.955v-26.955h-26.955Z" transform="translate(-114.474 -135.81)" fill="#3f3d56"/><path fill="#0d6efd" d="M776.328 174.658h146.224v13.03H776.328z"/><path d="M872.981 331.736h-30.955V300.78h30.955Zm-28.955-2h26.955V302.78h-26.955Z" transform="translate(-114.474 -135.81)" fill="#3f3d56"/></svg>